<mxfile host="app.diagrams.net" modified="2023-06-09T03:52:48.428Z" agent="Mozilla/5.0 (Windows NT 10.0; Win64; x64) AppleWebKit/537.36 (KHTML, like Gecko) Chrome/114.0.0.0 Safari/537.36 Edg/114.0.1823.41" etag="VlIWqvhSfPbqGGpGEejA" version="21.3.8" type="github">
  <diagram name="Page-1" id="2YBvvXClWsGukQMizWep">
    <mxGraphModel dx="922" dy="621" grid="1" gridSize="10" guides="1" tooltips="1" connect="1" arrows="1" fold="1" page="1" pageScale="1" pageWidth="850" pageHeight="1100" math="0" shadow="0">
      <root>
        <mxCell id="0" />
        <mxCell id="1" parent="0" />
        <mxCell id="aM9ryv3xv72pqoxQDRHE-1" value="User" style="shape=umlLifeline;perimeter=lifelinePerimeter;whiteSpace=wrap;html=1;container=0;dropTarget=0;collapsible=0;recursiveResize=0;outlineConnect=0;portConstraint=eastwest;newEdgeStyle={&quot;edgeStyle&quot;:&quot;elbowEdgeStyle&quot;,&quot;elbow&quot;:&quot;vertical&quot;,&quot;curved&quot;:0,&quot;rounded&quot;:0};" parent="1" vertex="1">
          <mxGeometry x="40" y="40" width="100" height="300" as="geometry" />
        </mxCell>
        <mxCell id="jNAA0bETZX-LUmCjjA7m-2" value="" style="endArrow=none;dashed=1;html=1;dashPattern=1 3;strokeWidth=2;rounded=0;" parent="1" source="aM9ryv3xv72pqoxQDRHE-1" edge="1">
          <mxGeometry width="50" height="50" relative="1" as="geometry">
            <mxPoint x="130" y="180" as="sourcePoint" />
            <mxPoint x="269.5" y="110" as="targetPoint" />
            <Array as="points">
              <mxPoint x="180" y="110" />
            </Array>
          </mxGeometry>
        </mxCell>
        <mxCell id="jNAA0bETZX-LUmCjjA7m-3" value="" style="endArrow=classic;html=1;rounded=0;" parent="1" edge="1">
          <mxGeometry width="50" height="50" relative="1" as="geometry">
            <mxPoint x="250" y="110" as="sourcePoint" />
            <mxPoint x="270" y="110" as="targetPoint" />
          </mxGeometry>
        </mxCell>
        <mxCell id="jNAA0bETZX-LUmCjjA7m-6" value="&lt;font style=&quot;font-size: 10px;&quot;&gt;1.Enter(Recipe)&lt;/font&gt;" style="text;strokeColor=none;fillColor=none;align=left;verticalAlign=middle;spacingLeft=4;spacingRight=4;overflow=hidden;points=[[0,0.5],[1,0.5]];portConstraint=eastwest;rotatable=0;whiteSpace=wrap;html=1;" parent="1" vertex="1">
          <mxGeometry x="130" y="80" width="100" height="30" as="geometry" />
        </mxCell>
        <mxCell id="jNAA0bETZX-LUmCjjA7m-8" value="" style="swimlane;startSize=0;" parent="1" vertex="1">
          <mxGeometry x="265" y="100" width="10" height="200" as="geometry" />
        </mxCell>
        <mxCell id="jNAA0bETZX-LUmCjjA7m-15" value="" style="shape=umlLifeline;perimeter=lifelinePerimeter;whiteSpace=wrap;html=1;container=1;dropTarget=0;collapsible=0;recursiveResize=0;outlineConnect=0;portConstraint=eastwest;newEdgeStyle={&quot;edgeStyle&quot;:&quot;elbowEdgeStyle&quot;,&quot;elbow&quot;:&quot;vertical&quot;,&quot;curved&quot;:0,&quot;rounded&quot;:0};participant=umlControl;" parent="1" vertex="1">
          <mxGeometry x="430" y="40" width="40" height="300" as="geometry" />
        </mxCell>
        <mxCell id="jNAA0bETZX-LUmCjjA7m-16" value="Control&amp;nbsp;" style="ellipse;shape=umlControl;whiteSpace=wrap;html=1;" parent="1" vertex="1">
          <mxGeometry x="415" y="10" width="70" height="80" as="geometry" />
        </mxCell>
        <mxCell id="jNAA0bETZX-LUmCjjA7m-20" value="2.Truy vấn công thức" style="html=1;verticalAlign=bottom;endArrow=open;dashed=1;endSize=8;edgeStyle=elbowEdgeStyle;elbow=vertical;curved=0;rounded=0;exitX=1.14;exitY=0.049;exitDx=0;exitDy=0;exitPerimeter=0;" parent="1" source="jNAA0bETZX-LUmCjjA7m-8" target="jNAA0bETZX-LUmCjjA7m-15" edge="1">
          <mxGeometry x="0.004" relative="1" as="geometry">
            <mxPoint x="400" y="120" as="sourcePoint" />
            <mxPoint x="330" y="120" as="targetPoint" />
            <mxPoint as="offset" />
          </mxGeometry>
        </mxCell>
        <mxCell id="jNAA0bETZX-LUmCjjA7m-21" value="" style="shape=umlLifeline;perimeter=lifelinePerimeter;whiteSpace=wrap;html=1;container=1;dropTarget=0;collapsible=0;recursiveResize=0;outlineConnect=0;portConstraint=eastwest;newEdgeStyle={&quot;edgeStyle&quot;:&quot;elbowEdgeStyle&quot;,&quot;elbow&quot;:&quot;vertical&quot;,&quot;curved&quot;:0,&quot;rounded&quot;:0};participant=umlEntity;" parent="1" vertex="1">
          <mxGeometry x="600" y="40" width="40" height="300" as="geometry" />
        </mxCell>
        <mxCell id="jNAA0bETZX-LUmCjjA7m-23" value="Database" style="shape=umlBoundary;whiteSpace=wrap;html=1;" parent="1" vertex="1">
          <mxGeometry x="560" y="10" width="100" height="80" as="geometry" />
        </mxCell>
        <mxCell id="jNAA0bETZX-LUmCjjA7m-25" value="" style="shape=umlLifeline;perimeter=lifelinePerimeter;whiteSpace=wrap;html=1;container=1;dropTarget=0;collapsible=0;recursiveResize=0;outlineConnect=0;portConstraint=eastwest;newEdgeStyle={&quot;edgeStyle&quot;:&quot;elbowEdgeStyle&quot;,&quot;elbow&quot;:&quot;vertical&quot;,&quot;curved&quot;:0,&quot;rounded&quot;:0};participant=umlBoundary;" parent="1" vertex="1">
          <mxGeometry x="245" y="40" width="50" height="300" as="geometry" />
        </mxCell>
        <mxCell id="hxncDDFn0hjcI0O8DIj3-12" value="" style="html=1;points=[];perimeter=orthogonalPerimeter;outlineConnect=0;targetShapes=umlLifeline;portConstraint=eastwest;newEdgeStyle={&quot;edgeStyle&quot;:&quot;elbowEdgeStyle&quot;,&quot;elbow&quot;:&quot;vertical&quot;,&quot;curved&quot;:0,&quot;rounded&quot;:0};" vertex="1" parent="jNAA0bETZX-LUmCjjA7m-25">
          <mxGeometry x="15" y="240" width="10" height="40" as="geometry" />
        </mxCell>
        <mxCell id="hxncDDFn0hjcI0O8DIj3-13" value="mang xa hoi/mail" style="html=1;align=left;spacingLeft=2;endArrow=block;rounded=0;edgeStyle=orthogonalEdgeStyle;curved=0;rounded=0;" edge="1" target="hxncDDFn0hjcI0O8DIj3-12" parent="jNAA0bETZX-LUmCjjA7m-25">
          <mxGeometry relative="1" as="geometry">
            <mxPoint x="20" y="220" as="sourcePoint" />
            <Array as="points">
              <mxPoint x="50" y="250" />
            </Array>
          </mxGeometry>
        </mxCell>
        <mxCell id="jNAA0bETZX-LUmCjjA7m-26" value="Interface" style="shape=umlBoundary;whiteSpace=wrap;html=1;" parent="1" vertex="1">
          <mxGeometry x="210" y="10" width="100" height="80" as="geometry" />
        </mxCell>
        <mxCell id="jNAA0bETZX-LUmCjjA7m-27" value="3.Truy vấn công thức&lt;br&gt;(từ Database)" style="html=1;verticalAlign=bottom;endArrow=open;dashed=1;endSize=8;edgeStyle=elbowEdgeStyle;elbow=vertical;curved=0;rounded=0;" parent="1" source="jNAA0bETZX-LUmCjjA7m-15" target="jNAA0bETZX-LUmCjjA7m-21" edge="1">
          <mxGeometry x="0.0647" relative="1" as="geometry">
            <mxPoint x="580" y="110" as="sourcePoint" />
            <mxPoint x="500" y="110" as="targetPoint" />
            <Array as="points">
              <mxPoint x="540" y="110" />
            </Array>
            <mxPoint x="1" as="offset" />
          </mxGeometry>
        </mxCell>
        <mxCell id="jNAA0bETZX-LUmCjjA7m-28" value="" style="swimlane;startSize=0;" parent="1" vertex="1">
          <mxGeometry x="445" y="100" width="10" height="130" as="geometry" />
        </mxCell>
        <mxCell id="jNAA0bETZX-LUmCjjA7m-29" value="" style="swimlane;startSize=0;" parent="1" vertex="1">
          <mxGeometry x="615" y="100" width="10" height="110" as="geometry" />
        </mxCell>
        <mxCell id="jNAA0bETZX-LUmCjjA7m-30" value="4.Trả về danh sách công thức" style="html=1;verticalAlign=bottom;endArrow=open;dashed=1;endSize=8;edgeStyle=elbowEdgeStyle;elbow=vertical;curved=0;rounded=0;entryX=0.5;entryY=0.333;entryDx=0;entryDy=0;entryPerimeter=0;" parent="1" target="jNAA0bETZX-LUmCjjA7m-25" edge="1">
          <mxGeometry relative="1" as="geometry">
            <mxPoint x="620" y="140" as="sourcePoint" />
            <mxPoint x="540" y="140" as="targetPoint" />
            <mxPoint x="1" as="offset" />
          </mxGeometry>
        </mxCell>
        <mxCell id="jNAA0bETZX-LUmCjjA7m-31" value="" style="swimlane;startSize=0;" parent="1" vertex="1">
          <mxGeometry x="85" y="100" width="10" height="220" as="geometry" />
        </mxCell>
        <mxCell id="jNAA0bETZX-LUmCjjA7m-32" value="6.Hiển thị danh sách công thức" style="html=1;verticalAlign=bottom;endArrow=open;dashed=1;endSize=8;edgeStyle=elbowEdgeStyle;elbow=vertical;curved=0;rounded=0;" parent="1" target="aM9ryv3xv72pqoxQDRHE-1" edge="1">
          <mxGeometry relative="1" as="geometry">
            <mxPoint x="270" y="150" as="sourcePoint" />
            <mxPoint x="190" y="150" as="targetPoint" />
            <Array as="points">
              <mxPoint x="130" y="140" />
            </Array>
          </mxGeometry>
        </mxCell>
        <mxCell id="hxncDDFn0hjcI0O8DIj3-3" value="1.Lập kế hoạch bữa ăn" style="html=1;verticalAlign=bottom;endArrow=block;edgeStyle=elbowEdgeStyle;elbow=vertical;curved=0;rounded=0;" edge="1" parent="1" target="jNAA0bETZX-LUmCjjA7m-25">
          <mxGeometry x="0.1142" width="80" relative="1" as="geometry">
            <mxPoint x="90" y="170" as="sourcePoint" />
            <mxPoint x="170" y="170" as="targetPoint" />
            <mxPoint as="offset" />
          </mxGeometry>
        </mxCell>
        <mxCell id="hxncDDFn0hjcI0O8DIj3-4" value="2.Tìm công thức cho kế hoạch" style="html=1;verticalAlign=bottom;endArrow=block;edgeStyle=elbowEdgeStyle;elbow=vertical;curved=0;rounded=0;entryX=-0.14;entryY=0.574;entryDx=0;entryDy=0;entryPerimeter=0;" edge="1" parent="1" target="jNAA0bETZX-LUmCjjA7m-28">
          <mxGeometry x="-0.037" width="80" relative="1" as="geometry">
            <mxPoint x="280" y="170" as="sourcePoint" />
            <mxPoint x="430" y="168" as="targetPoint" />
            <mxPoint as="offset" />
          </mxGeometry>
        </mxCell>
        <mxCell id="hxncDDFn0hjcI0O8DIj3-7" value="3Tìm công thức cho kế hoạch" style="html=1;verticalAlign=bottom;endArrow=block;edgeStyle=elbowEdgeStyle;elbow=vertical;curved=0;rounded=0;" edge="1" parent="1" target="jNAA0bETZX-LUmCjjA7m-21">
          <mxGeometry x="-0.056" width="80" relative="1" as="geometry">
            <mxPoint x="450" y="170" as="sourcePoint" />
            <mxPoint x="530" y="170" as="targetPoint" />
            <mxPoint as="offset" />
          </mxGeometry>
        </mxCell>
        <mxCell id="hxncDDFn0hjcI0O8DIj3-9" value="4.return&amp;nbsp;" style="html=1;verticalAlign=bottom;endArrow=open;dashed=1;endSize=8;edgeStyle=elbowEdgeStyle;elbow=vertical;curved=0;rounded=0;exitX=-0.02;exitY=0.911;exitDx=0;exitDy=0;exitPerimeter=0;" edge="1" parent="1" source="jNAA0bETZX-LUmCjjA7m-29" target="jNAA0bETZX-LUmCjjA7m-15">
          <mxGeometry x="-0.0031" relative="1" as="geometry">
            <mxPoint x="580" y="200" as="sourcePoint" />
            <mxPoint x="490" y="199" as="targetPoint" />
            <mxPoint as="offset" />
          </mxGeometry>
        </mxCell>
        <mxCell id="hxncDDFn0hjcI0O8DIj3-10" value="&lt;div&gt;5.Hiển thị danh sách công thức cho kế hoạch&lt;/div&gt;" style="html=1;verticalAlign=bottom;endArrow=open;dashed=1;endSize=8;edgeStyle=elbowEdgeStyle;elbow=vertical;curved=0;rounded=0;" edge="1" parent="1" target="aM9ryv3xv72pqoxQDRHE-1">
          <mxGeometry x="-0.1401" relative="1" as="geometry">
            <mxPoint x="450" y="200" as="sourcePoint" />
            <mxPoint x="370" y="200" as="targetPoint" />
            <mxPoint as="offset" />
          </mxGeometry>
        </mxCell>
        <mxCell id="hxncDDFn0hjcI0O8DIj3-11" value="Chia sẻ công thức" style="html=1;verticalAlign=bottom;startArrow=oval;startFill=1;endArrow=block;startSize=8;edgeStyle=elbowEdgeStyle;elbow=vertical;curved=0;rounded=0;entryX=0.42;entryY=0.745;entryDx=0;entryDy=0;entryPerimeter=0;" edge="1" parent="1" target="jNAA0bETZX-LUmCjjA7m-25">
          <mxGeometry width="60" relative="1" as="geometry">
            <mxPoint x="90" y="260" as="sourcePoint" />
            <mxPoint x="150" y="260" as="targetPoint" />
          </mxGeometry>
        </mxCell>
        <mxCell id="hxncDDFn0hjcI0O8DIj3-14" value="Xác nhận chia sẻ thành công" style="html=1;verticalAlign=bottom;endArrow=open;dashed=1;endSize=8;edgeStyle=elbowEdgeStyle;elbow=vertical;curved=0;rounded=0;" edge="1" parent="1">
          <mxGeometry x="-0.0133" y="3" relative="1" as="geometry">
            <mxPoint x="260" y="290" as="sourcePoint" />
            <mxPoint x="90" y="290" as="targetPoint" />
            <mxPoint as="offset" />
          </mxGeometry>
        </mxCell>
      </root>
    </mxGraphModel>
  </diagram>
</mxfile>
